<?xml version="1.0" standalone="no"?>
<!DOCTYPE svg PUBLIC "-//W3C//DTD SVG 20010904//EN"
 "http://www.w3.org/TR/2001/REC-SVG-20010904/DTD/svg10.dtd">
<svg version="1.0" xmlns="http://www.w3.org/2000/svg"
 width="200.000000pt" height="200.000000pt" viewBox="0 0 200.000000 200.000000"
 preserveAspectRatio="xMidYMid meet">
<metadata>
Created by potrace 1.11, written by Peter Selinger 2001-2013
</metadata>
<g transform="translate(0.000000,200.000000) scale(0.100000,-0.100000)"
fill="#000000" stroke="none">
<path d="M1227 1616 c-42 -48 -62 -87 -39 -72 9 5 94 126 89 126 -2 0 -24 -24
-50 -54z"/>
<path d="M1088 1546 c-33 -56 -67 -160 -56 -171 2 -2 21 39 42 91 41 97 62
126 26 35 -26 -68 -26 -71 13 -71 31 0 65 31 59 53 -1 5 2 6 8 2 6 -4 4 -15
-6 -31 l-16 -24 86 0 c47 0 86 4 86 8 0 4 -33 28 -72 51 -40 24 -84 51 -98 60
-20 13 -23 14 -15 1 8 -13 7 -13 -9 -1 -11 10 -15 22 -11 38 3 13 4 23 3 23
-2 0 -20 -29 -40 -64z"/>
<path d="M1053 1381 c-18 -41 -39 -119 -38 -140 0 -8 34 -39 75 -68 109 -79
101 -76 145 -37 l39 34 -25 27 c-13 15 -28 31 -33 34 -5 4 -6 11 -4 15 3 5
-10 41 -29 79 l-34 70 5 -44 c3 -29 13 -52 32 -72 15 -16 22 -29 16 -29 -7 0
-12 4 -12 8 0 5 -10 14 -23 21 -13 7 -23 20 -23 29 0 9 -1 37 -2 62 -2 45 -2
46 -38 47 -32 1 -38 -3 -51 -36z"/>
<path d="M520 1233 c0 -13 5 -23 10 -23 13 0 13 11 0 30 -8 12 -10 11 -10 -7z"/>
<path d="M556 1213 l-29 -16 24 -13 c21 -11 25 -10 36 9 23 41 17 45 -31 20z"/>
<path d="M601 1204 c-15 -34 -9 -39 26 -22 37 17 43 48 10 48 -16 0 -28 -8
-36 -26z"/>
<path d="M670 1215 c0 -10 10 -15 27 -15 26 0 26 1 7 15 -25 19 -34 19 -34 0z"/>
<path d="M958 1203 c-15 -4 -142 -192 -135 -199 1 -2 36 14 77 35 l75 38 9 56
c5 31 13 57 17 57 4 0 3 -17 -2 -37 -17 -76 -19 -75 74 -67 45 3 86 9 90 11 4
3 -25 28 -65 57 -69 49 -99 59 -140 49z"/>
<path d="M1268 1198 c9 -9 15 -9 24 0 9 9 7 12 -12 12 -19 0 -21 -3 -12 -12z"/>
<path d="M792 1192 l-52 -3 7 -57 c3 -33 16 -73 30 -95 l24 -39 55 87 c30 48
56 92 57 98 2 11 -33 14 -121 9z"/>
<path d="M1300 1185 c-10 -12 -5 -22 29 -55 23 -22 41 -38 41 -35 0 10 -42 95
-50 100 -4 3 -13 -2 -20 -10z"/>
<path d="M716 1152 c-3 -5 1 -18 9 -28 14 -18 14 -18 15 3 0 23 -15 39 -24 25z"/>
<path d="M1162 1085 l-43 -11 51 -67 c50 -66 68 -83 56 -51 -3 8 -2 12 4 9 6
-3 10 -14 10 -24 0 -9 11 -32 25 -51 14 -19 25 -31 25 -28 0 14 -30 75 -48 99
-13 15 -22 46 -25 78 -3 28 -6 53 -8 54 -2 2 -23 -2 -47 -8z"/>
<path d="M765 1000 c3 -25 6 -73 7 -107 0 -35 4 -66 9 -69 5 -3 9 8 9 25 0 41
12 45 46 13 58 -54 68 -60 43 -21 -42 63 -83 134 -85 146 -1 6 -10 22 -19 35
-16 23 -16 22 -10 -22z"/>
<path d="M187 843 c-54 -89 -80 -187 -81 -303 -1 -91 2 -111 23 -153 27 -56
67 -81 118 -74 43 6 78 38 109 100 l25 48 29 -59 c17 -32 39 -67 51 -77 l20
-19 -21 48 c-48 114 -51 288 -5 415 27 75 27 93 -3 75 -45 -29 -81 -153 -82
-279 0 -90 -14 -137 -52 -180 -58 -67 -133 -38 -155 61 -21 92 -5 258 38 382
10 30 18 57 16 58 -1 2 -15 -18 -30 -43z"/>
<path d="M810 715 c-13 -16 -7 -45 9 -45 17 0 40 30 35 45 -8 19 -28 19 -44 0z"/>
<path d="M1389 638 c-1 -7 -1 -33 0 -58 1 -28 -5 -59 -17 -82 -11 -21 -17 -38
-15 -38 14 0 55 59 65 93 8 26 16 36 26 32 7 -3 18 -5 23 -5 5 0 6 -17 3 -40
-9 -53 1 -86 31 -106 30 -19 66 -13 94 17 l20 22 7 -27 c9 -35 40 -35 49 2 3
15 18 52 32 82 24 51 27 53 34 30 4 -14 10 -41 13 -61 12 -68 65 -98 114 -63
31 21 28 38 -4 18 -24 -16 -26 -16 -45 3 -13 12 -24 44 -30 89 -12 75 -24 91
-51 68 -18 -17 -68 -113 -69 -135 0 -8 -4 -3 -8 11 -4 14 -5 51 -1 82 7 63 -6
81 -36 51 -13 -13 -15 -29 -11 -79 6 -68 -8 -94 -51 -94 -36 0 -51 33 -40 92
11 58 7 63 -54 73 -20 4 -42 13 -49 21 -14 17 -29 18 -30 2z"/>
<path d="M516 625 c-27 -28 -2 -220 28 -209 7 3 27 41 45 84 18 44 36 78 40
75 5 -2 11 -28 14 -56 11 -88 64 -123 120 -79 20 16 26 17 30 6 10 -25 64 -30
107 -8 38 19 40 19 67 1 37 -24 84 -24 133 1 l40 20 29 -21 c61 -45 147 -1
158 79 9 66 -42 126 -87 102 -28 -15 -25 -25 9 -40 51 -21 65 -96 22 -119 -67
-37 -128 63 -86 142 l14 28 -29 -21 c-31 -22 -46 -69 -38 -114 4 -18 -1 -27
-19 -35 -38 -17 -98 -14 -116 7 -29 32 -26 92 5 122 39 36 91 19 56 -19 -11
-11 -9 -11 10 -2 30 16 28 49 -3 61 -61 23 -135 -46 -135 -126 0 -37 -3 -42
-27 -47 -51 -10 -79 13 -89 73 -2 8 5 34 16 57 22 50 6 48 -29 -3 -15 -21 -26
-52 -27 -76 -2 -50 -23 -74 -52 -59 -23 12 -39 54 -46 120 -9 85 -42 73 -93
-34 l-33 -70 1 75 c1 98 1 100 -10 100 -5 0 -17 -7 -25 -15z"/>
</g>
</svg>
